<mxfile host="app.diagrams.net" modified="2023-02-21T21:36:45.936Z" agent="5.0 (Macintosh; Intel Mac OS X 10_15_7) AppleWebKit/537.36 (KHTML, like Gecko) Chrome/110.0.0.0 Safari/537.36" etag="nujXlIqy6KRXaxX4DX4W" version="20.8.21" type="github">
  <diagram name="Page-1" id="Bgr6HQV_79E0zXIhjUkG">
    <mxGraphModel dx="1306" dy="811" grid="1" gridSize="10" guides="1" tooltips="1" connect="1" arrows="1" fold="1" page="1" pageScale="1" pageWidth="850" pageHeight="1100" math="0" shadow="0">
      <root>
        <mxCell id="0" />
        <mxCell id="1" parent="0" />
        <mxCell id="niRGBFBx5_DlrDRdst34-49" value="" style="rounded=1;whiteSpace=wrap;html=1;" vertex="1" parent="1">
          <mxGeometry x="580" y="223" width="110" height="277" as="geometry" />
        </mxCell>
        <mxCell id="niRGBFBx5_DlrDRdst34-34" value="Rules" style="shape=table;startSize=30;container=1;collapsible=0;childLayout=tableLayout;strokeColor=default;fontSize=16;" vertex="1" parent="1">
          <mxGeometry x="700" y="230" width="210" height="100" as="geometry" />
        </mxCell>
        <mxCell id="niRGBFBx5_DlrDRdst34-35" value="" style="shape=tableRow;horizontal=0;startSize=0;swimlaneHead=0;swimlaneBody=0;strokeColor=inherit;top=0;left=0;bottom=0;right=0;collapsible=0;dropTarget=0;fillColor=none;points=[[0,0.5],[1,0.5]];portConstraint=eastwest;fontSize=16;" vertex="1" parent="niRGBFBx5_DlrDRdst34-34">
          <mxGeometry y="30" width="210" height="23" as="geometry" />
        </mxCell>
        <mxCell id="niRGBFBx5_DlrDRdst34-36" value="/a" style="shape=partialRectangle;html=1;whiteSpace=wrap;connectable=0;strokeColor=inherit;overflow=hidden;fillColor=none;top=0;left=0;bottom=0;right=0;pointerEvents=1;fontSize=16;" vertex="1" parent="niRGBFBx5_DlrDRdst34-35">
          <mxGeometry width="69" height="23" as="geometry">
            <mxRectangle width="69" height="23" as="alternateBounds" />
          </mxGeometry>
        </mxCell>
        <mxCell id="niRGBFBx5_DlrDRdst34-37" value="service A" style="shape=partialRectangle;html=1;whiteSpace=wrap;connectable=0;strokeColor=inherit;overflow=hidden;fillColor=none;top=0;left=0;bottom=0;right=0;pointerEvents=1;fontSize=16;" vertex="1" parent="niRGBFBx5_DlrDRdst34-35">
          <mxGeometry x="69" width="81" height="23" as="geometry">
            <mxRectangle width="81" height="23" as="alternateBounds" />
          </mxGeometry>
        </mxCell>
        <mxCell id="niRGBFBx5_DlrDRdst34-38" value="" style="shape=partialRectangle;html=1;whiteSpace=wrap;connectable=0;strokeColor=inherit;overflow=hidden;fillColor=none;top=0;left=0;bottom=0;right=0;pointerEvents=1;fontSize=16;" vertex="1" parent="niRGBFBx5_DlrDRdst34-35">
          <mxGeometry x="150" width="60" height="23" as="geometry">
            <mxRectangle width="60" height="23" as="alternateBounds" />
          </mxGeometry>
        </mxCell>
        <mxCell id="niRGBFBx5_DlrDRdst34-39" value="" style="shape=tableRow;horizontal=0;startSize=0;swimlaneHead=0;swimlaneBody=0;strokeColor=inherit;top=0;left=0;bottom=0;right=0;collapsible=0;dropTarget=0;fillColor=none;points=[[0,0.5],[1,0.5]];portConstraint=eastwest;fontSize=16;" vertex="1" parent="niRGBFBx5_DlrDRdst34-34">
          <mxGeometry y="53" width="210" height="24" as="geometry" />
        </mxCell>
        <mxCell id="niRGBFBx5_DlrDRdst34-40" value="/b" style="shape=partialRectangle;html=1;whiteSpace=wrap;connectable=0;strokeColor=inherit;overflow=hidden;fillColor=none;top=0;left=0;bottom=0;right=0;pointerEvents=1;fontSize=16;" vertex="1" parent="niRGBFBx5_DlrDRdst34-39">
          <mxGeometry width="69" height="24" as="geometry">
            <mxRectangle width="69" height="24" as="alternateBounds" />
          </mxGeometry>
        </mxCell>
        <mxCell id="niRGBFBx5_DlrDRdst34-41" value="B" style="shape=partialRectangle;html=1;whiteSpace=wrap;connectable=0;strokeColor=inherit;overflow=hidden;fillColor=none;top=0;left=0;bottom=0;right=0;pointerEvents=1;fontSize=16;" vertex="1" parent="niRGBFBx5_DlrDRdst34-39">
          <mxGeometry x="69" width="81" height="24" as="geometry">
            <mxRectangle width="81" height="24" as="alternateBounds" />
          </mxGeometry>
        </mxCell>
        <mxCell id="niRGBFBx5_DlrDRdst34-42" value="" style="shape=partialRectangle;html=1;whiteSpace=wrap;connectable=0;strokeColor=inherit;overflow=hidden;fillColor=none;top=0;left=0;bottom=0;right=0;pointerEvents=1;fontSize=16;" vertex="1" parent="niRGBFBx5_DlrDRdst34-39">
          <mxGeometry x="150" width="60" height="24" as="geometry">
            <mxRectangle width="60" height="24" as="alternateBounds" />
          </mxGeometry>
        </mxCell>
        <mxCell id="niRGBFBx5_DlrDRdst34-43" value="" style="shape=tableRow;horizontal=0;startSize=0;swimlaneHead=0;swimlaneBody=0;strokeColor=inherit;top=0;left=0;bottom=0;right=0;collapsible=0;dropTarget=0;fillColor=none;points=[[0,0.5],[1,0.5]];portConstraint=eastwest;fontSize=16;" vertex="1" parent="niRGBFBx5_DlrDRdst34-34">
          <mxGeometry y="77" width="210" height="23" as="geometry" />
        </mxCell>
        <mxCell id="niRGBFBx5_DlrDRdst34-44" value="/c" style="shape=partialRectangle;html=1;whiteSpace=wrap;connectable=0;strokeColor=inherit;overflow=hidden;fillColor=none;top=0;left=0;bottom=0;right=0;pointerEvents=1;fontSize=16;" vertex="1" parent="niRGBFBx5_DlrDRdst34-43">
          <mxGeometry width="69" height="23" as="geometry">
            <mxRectangle width="69" height="23" as="alternateBounds" />
          </mxGeometry>
        </mxCell>
        <mxCell id="niRGBFBx5_DlrDRdst34-45" value="C" style="shape=partialRectangle;html=1;whiteSpace=wrap;connectable=0;strokeColor=inherit;overflow=hidden;fillColor=none;top=0;left=0;bottom=0;right=0;pointerEvents=1;fontSize=16;" vertex="1" parent="niRGBFBx5_DlrDRdst34-43">
          <mxGeometry x="69" width="81" height="23" as="geometry">
            <mxRectangle width="81" height="23" as="alternateBounds" />
          </mxGeometry>
        </mxCell>
        <mxCell id="niRGBFBx5_DlrDRdst34-46" value="" style="shape=partialRectangle;html=1;whiteSpace=wrap;connectable=0;strokeColor=inherit;overflow=hidden;fillColor=none;top=0;left=0;bottom=0;right=0;pointerEvents=1;fontSize=16;" vertex="1" parent="niRGBFBx5_DlrDRdst34-43">
          <mxGeometry x="150" width="60" height="23" as="geometry">
            <mxRectangle width="60" height="23" as="alternateBounds" />
          </mxGeometry>
        </mxCell>
        <mxCell id="niRGBFBx5_DlrDRdst34-5" style="edgeStyle=entityRelationEdgeStyle;rounded=0;orthogonalLoop=1;jettySize=auto;html=1;entryX=0;entryY=0.5;entryDx=0;entryDy=0;" edge="1" parent="1" source="niRGBFBx5_DlrDRdst34-1" target="niRGBFBx5_DlrDRdst34-4">
          <mxGeometry relative="1" as="geometry" />
        </mxCell>
        <mxCell id="niRGBFBx5_DlrDRdst34-7" style="edgeStyle=entityRelationEdgeStyle;rounded=0;orthogonalLoop=1;jettySize=auto;html=1;entryX=0;entryY=0.5;entryDx=0;entryDy=0;" edge="1" parent="1" source="niRGBFBx5_DlrDRdst34-1" target="niRGBFBx5_DlrDRdst34-3">
          <mxGeometry relative="1" as="geometry" />
        </mxCell>
        <mxCell id="niRGBFBx5_DlrDRdst34-1" value="User" style="shape=umlActor;verticalLabelPosition=bottom;verticalAlign=top;html=1;outlineConnect=0;" vertex="1" parent="1">
          <mxGeometry x="45" y="210" width="30" height="60" as="geometry" />
        </mxCell>
        <mxCell id="niRGBFBx5_DlrDRdst34-6" style="edgeStyle=entityRelationEdgeStyle;rounded=0;orthogonalLoop=1;jettySize=auto;html=1;" edge="1" parent="1" source="niRGBFBx5_DlrDRdst34-2" target="niRGBFBx5_DlrDRdst34-4">
          <mxGeometry relative="1" as="geometry" />
        </mxCell>
        <mxCell id="niRGBFBx5_DlrDRdst34-8" style="edgeStyle=entityRelationEdgeStyle;rounded=0;orthogonalLoop=1;jettySize=auto;html=1;" edge="1" parent="1" source="niRGBFBx5_DlrDRdst34-2">
          <mxGeometry relative="1" as="geometry">
            <mxPoint x="350" y="370" as="targetPoint" />
          </mxGeometry>
        </mxCell>
        <mxCell id="niRGBFBx5_DlrDRdst34-2" value="Internal Service (Connect, Telemetry ....)" style="rounded=1;whiteSpace=wrap;html=1;" vertex="1" parent="1">
          <mxGeometry x="45" y="505" width="120" height="60" as="geometry" />
        </mxCell>
        <mxCell id="niRGBFBx5_DlrDRdst34-11" style="rounded=0;orthogonalLoop=1;jettySize=auto;html=1;entryX=0.5;entryY=1;entryDx=0;entryDy=0;" edge="1" parent="1" source="niRGBFBx5_DlrDRdst34-3" target="niRGBFBx5_DlrDRdst34-4">
          <mxGeometry relative="1" as="geometry" />
        </mxCell>
        <mxCell id="niRGBFBx5_DlrDRdst34-19" style="edgeStyle=none;rounded=0;orthogonalLoop=1;jettySize=auto;html=1;entryX=0;entryY=0.5;entryDx=0;entryDy=0;" edge="1" parent="1" source="niRGBFBx5_DlrDRdst34-3" target="niRGBFBx5_DlrDRdst34-56">
          <mxGeometry relative="1" as="geometry" />
        </mxCell>
        <mxCell id="niRGBFBx5_DlrDRdst34-3" value="AWS LB" style="rounded=1;whiteSpace=wrap;html=1;" vertex="1" parent="1">
          <mxGeometry x="350" y="340" width="120" height="60" as="geometry" />
        </mxCell>
        <mxCell id="niRGBFBx5_DlrDRdst34-4" value="DNS record (route 53)" style="rounded=1;whiteSpace=wrap;html=1;" vertex="1" parent="1">
          <mxGeometry x="350" y="110" width="120" height="60" as="geometry" />
        </mxCell>
        <mxCell id="niRGBFBx5_DlrDRdst34-9" value="? url" style="text;html=1;align=center;verticalAlign=middle;resizable=0;points=[];autosize=1;strokeColor=none;fillColor=none;" vertex="1" parent="1">
          <mxGeometry x="135" y="215" width="50" height="30" as="geometry" />
        </mxCell>
        <mxCell id="niRGBFBx5_DlrDRdst34-10" value="? url , telemetry .zeta.tools" style="text;html=1;align=center;verticalAlign=middle;resizable=0;points=[];autosize=1;strokeColor=none;fillColor=none;" vertex="1" parent="1">
          <mxGeometry x="110" y="405" width="160" height="30" as="geometry" />
        </mxCell>
        <mxCell id="niRGBFBx5_DlrDRdst34-12" value="DNS - ALB" style="text;html=1;align=center;verticalAlign=middle;resizable=0;points=[];autosize=1;strokeColor=none;fillColor=none;" vertex="1" parent="1">
          <mxGeometry x="420" y="200" width="80" height="30" as="geometry" />
        </mxCell>
        <mxCell id="niRGBFBx5_DlrDRdst34-21" style="edgeStyle=none;rounded=0;orthogonalLoop=1;jettySize=auto;html=1;" edge="1" parent="1" source="niRGBFBx5_DlrDRdst34-13" target="niRGBFBx5_DlrDRdst34-20">
          <mxGeometry relative="1" as="geometry" />
        </mxCell>
        <mxCell id="niRGBFBx5_DlrDRdst34-13" value="Kong Gateway" style="rounded=1;whiteSpace=wrap;html=1;" vertex="1" parent="1">
          <mxGeometry x="615" y="340" width="120" height="60" as="geometry" />
        </mxCell>
        <mxCell id="niRGBFBx5_DlrDRdst34-14" value="" style="endArrow=none;dashed=1;html=1;dashPattern=1 3;strokeWidth=2;rounded=0;" edge="1" parent="1">
          <mxGeometry width="50" height="50" relative="1" as="geometry">
            <mxPoint x="540" y="635" as="sourcePoint" />
            <mxPoint x="540" y="85" as="targetPoint" />
          </mxGeometry>
        </mxCell>
        <mxCell id="niRGBFBx5_DlrDRdst34-15" value="EKS cluster" style="text;html=1;align=center;verticalAlign=middle;resizable=0;points=[];autosize=1;strokeColor=none;fillColor=none;" vertex="1" parent="1">
          <mxGeometry x="645" y="95" width="90" height="30" as="geometry" />
        </mxCell>
        <mxCell id="niRGBFBx5_DlrDRdst34-16" value="" style="endArrow=none;dashed=1;html=1;dashPattern=1 3;strokeWidth=2;rounded=0;" edge="1" parent="1">
          <mxGeometry width="50" height="50" relative="1" as="geometry">
            <mxPoint x="240" y="645" as="sourcePoint" />
            <mxPoint x="240" y="95" as="targetPoint" />
          </mxGeometry>
        </mxCell>
        <mxCell id="niRGBFBx5_DlrDRdst34-17" value="AWS" style="text;html=1;align=center;verticalAlign=middle;resizable=0;points=[];autosize=1;strokeColor=none;fillColor=none;" vertex="1" parent="1">
          <mxGeometry x="325" y="55" width="50" height="30" as="geometry" />
        </mxCell>
        <mxCell id="niRGBFBx5_DlrDRdst34-18" value="Clients" style="text;html=1;align=center;verticalAlign=middle;resizable=0;points=[];autosize=1;strokeColor=none;fillColor=none;" vertex="1" parent="1">
          <mxGeometry x="20" y="95" width="60" height="30" as="geometry" />
        </mxCell>
        <mxCell id="niRGBFBx5_DlrDRdst34-25" style="edgeStyle=none;rounded=0;orthogonalLoop=1;jettySize=auto;html=1;entryX=0;entryY=0.5;entryDx=0;entryDy=0;" edge="1" parent="1" source="niRGBFBx5_DlrDRdst34-20" target="niRGBFBx5_DlrDRdst34-22">
          <mxGeometry relative="1" as="geometry" />
        </mxCell>
        <mxCell id="niRGBFBx5_DlrDRdst34-26" style="edgeStyle=none;rounded=0;orthogonalLoop=1;jettySize=auto;html=1;" edge="1" parent="1" source="niRGBFBx5_DlrDRdst34-20" target="niRGBFBx5_DlrDRdst34-24">
          <mxGeometry relative="1" as="geometry" />
        </mxCell>
        <mxCell id="niRGBFBx5_DlrDRdst34-27" style="edgeStyle=none;rounded=0;orthogonalLoop=1;jettySize=auto;html=1;entryX=0;entryY=0.5;entryDx=0;entryDy=0;" edge="1" parent="1" source="niRGBFBx5_DlrDRdst34-20" target="niRGBFBx5_DlrDRdst34-23">
          <mxGeometry relative="1" as="geometry" />
        </mxCell>
        <mxCell id="niRGBFBx5_DlrDRdst34-20" value="Kong Controller" style="rounded=1;whiteSpace=wrap;html=1;" vertex="1" parent="1">
          <mxGeometry x="830" y="340" width="120" height="60" as="geometry" />
        </mxCell>
        <mxCell id="niRGBFBx5_DlrDRdst34-22" value="Service A" style="rounded=1;whiteSpace=wrap;html=1;" vertex="1" parent="1">
          <mxGeometry x="1060" y="155" width="120" height="60" as="geometry" />
        </mxCell>
        <mxCell id="niRGBFBx5_DlrDRdst34-23" value="C" style="rounded=1;whiteSpace=wrap;html=1;" vertex="1" parent="1">
          <mxGeometry x="1070" y="530" width="120" height="60" as="geometry" />
        </mxCell>
        <mxCell id="niRGBFBx5_DlrDRdst34-24" value="B" style="rounded=1;whiteSpace=wrap;html=1;" vertex="1" parent="1">
          <mxGeometry x="1070" y="340" width="120" height="60" as="geometry" />
        </mxCell>
        <mxCell id="niRGBFBx5_DlrDRdst34-31" style="edgeStyle=orthogonalEdgeStyle;curved=1;rounded=0;orthogonalLoop=1;jettySize=auto;html=1;entryX=0.75;entryY=0;entryDx=0;entryDy=0;" edge="1" parent="1" source="niRGBFBx5_DlrDRdst34-28" target="niRGBFBx5_DlrDRdst34-20">
          <mxGeometry relative="1" as="geometry" />
        </mxCell>
        <mxCell id="niRGBFBx5_DlrDRdst34-28" value="Ingress" style="ellipse;whiteSpace=wrap;html=1;aspect=fixed;" vertex="1" parent="1">
          <mxGeometry x="1040" y="130" width="40" height="40" as="geometry" />
        </mxCell>
        <mxCell id="niRGBFBx5_DlrDRdst34-32" style="edgeStyle=orthogonalEdgeStyle;curved=1;rounded=0;orthogonalLoop=1;jettySize=auto;html=1;entryX=0.5;entryY=0;entryDx=0;entryDy=0;" edge="1" parent="1" source="niRGBFBx5_DlrDRdst34-29" target="niRGBFBx5_DlrDRdst34-20">
          <mxGeometry relative="1" as="geometry" />
        </mxCell>
        <mxCell id="niRGBFBx5_DlrDRdst34-29" value="Ingress" style="ellipse;whiteSpace=wrap;html=1;aspect=fixed;" vertex="1" parent="1">
          <mxGeometry x="1050" y="310" width="40" height="40" as="geometry" />
        </mxCell>
        <mxCell id="niRGBFBx5_DlrDRdst34-33" style="edgeStyle=orthogonalEdgeStyle;curved=1;rounded=0;orthogonalLoop=1;jettySize=auto;html=1;entryX=0.75;entryY=1;entryDx=0;entryDy=0;" edge="1" parent="1" source="niRGBFBx5_DlrDRdst34-30" target="niRGBFBx5_DlrDRdst34-20">
          <mxGeometry relative="1" as="geometry" />
        </mxCell>
        <mxCell id="niRGBFBx5_DlrDRdst34-30" value="Ingress" style="ellipse;whiteSpace=wrap;html=1;aspect=fixed;" vertex="1" parent="1">
          <mxGeometry x="1050" y="500" width="40" height="40" as="geometry" />
        </mxCell>
        <mxCell id="niRGBFBx5_DlrDRdst34-47" value="443" style="ellipse;whiteSpace=wrap;html=1;aspect=fixed;" vertex="1" parent="1">
          <mxGeometry x="431" y="311" width="39" height="39" as="geometry" />
        </mxCell>
        <mxCell id="niRGBFBx5_DlrDRdst34-48" value="80" style="ellipse;whiteSpace=wrap;html=1;aspect=fixed;" vertex="1" parent="1">
          <mxGeometry x="470" y="311" width="39" height="39" as="geometry" />
        </mxCell>
        <mxCell id="niRGBFBx5_DlrDRdst34-50" value="Node A" style="text;html=1;align=center;verticalAlign=middle;resizable=0;points=[];autosize=1;strokeColor=none;fillColor=none;" vertex="1" parent="1">
          <mxGeometry x="610" y="520" width="60" height="30" as="geometry" />
        </mxCell>
        <mxCell id="niRGBFBx5_DlrDRdst34-51" value="Kong Gateway" style="rounded=1;whiteSpace=wrap;html=1;" vertex="1" parent="1">
          <mxGeometry x="625" y="350" width="120" height="60" as="geometry" />
        </mxCell>
        <mxCell id="niRGBFBx5_DlrDRdst34-52" value="Kong Gateway" style="rounded=1;whiteSpace=wrap;html=1;" vertex="1" parent="1">
          <mxGeometry x="635" y="360" width="120" height="60" as="geometry" />
        </mxCell>
        <mxCell id="niRGBFBx5_DlrDRdst34-53" value="Kong Gateway" style="rounded=1;whiteSpace=wrap;html=1;" vertex="1" parent="1">
          <mxGeometry x="645" y="370" width="120" height="60" as="geometry" />
        </mxCell>
        <mxCell id="niRGBFBx5_DlrDRdst34-57" style="edgeStyle=orthogonalEdgeStyle;curved=1;rounded=0;orthogonalLoop=1;jettySize=auto;html=1;" edge="1" parent="1" source="niRGBFBx5_DlrDRdst34-54" target="niRGBFBx5_DlrDRdst34-56">
          <mxGeometry relative="1" as="geometry" />
        </mxCell>
        <mxCell id="niRGBFBx5_DlrDRdst34-54" value="Kong Gateway" style="rounded=1;whiteSpace=wrap;html=1;" vertex="1" parent="1">
          <mxGeometry x="655" y="380" width="120" height="60" as="geometry" />
        </mxCell>
        <mxCell id="niRGBFBx5_DlrDRdst34-56" value="12121" style="ellipse;whiteSpace=wrap;html=1;aspect=fixed;" vertex="1" parent="1">
          <mxGeometry x="571" y="200" width="39" height="39" as="geometry" />
        </mxCell>
        <mxCell id="niRGBFBx5_DlrDRdst34-59" style="edgeStyle=orthogonalEdgeStyle;curved=1;rounded=0;orthogonalLoop=1;jettySize=auto;html=1;" edge="1" parent="1" source="niRGBFBx5_DlrDRdst34-58" target="niRGBFBx5_DlrDRdst34-54">
          <mxGeometry relative="1" as="geometry" />
        </mxCell>
        <mxCell id="niRGBFBx5_DlrDRdst34-60" style="edgeStyle=orthogonalEdgeStyle;curved=1;rounded=0;orthogonalLoop=1;jettySize=auto;html=1;" edge="1" parent="1" source="niRGBFBx5_DlrDRdst34-58" target="niRGBFBx5_DlrDRdst34-20">
          <mxGeometry relative="1" as="geometry" />
        </mxCell>
        <mxCell id="niRGBFBx5_DlrDRdst34-61" style="edgeStyle=orthogonalEdgeStyle;curved=1;rounded=0;orthogonalLoop=1;jettySize=auto;html=1;entryX=0.5;entryY=1;entryDx=0;entryDy=0;" edge="1" parent="1" source="niRGBFBx5_DlrDRdst34-58" target="niRGBFBx5_DlrDRdst34-30">
          <mxGeometry relative="1" as="geometry" />
        </mxCell>
        <mxCell id="niRGBFBx5_DlrDRdst34-58" value="kong-release" style="rounded=1;whiteSpace=wrap;html=1;" vertex="1" parent="1">
          <mxGeometry x="540" y="680" width="120" height="60" as="geometry" />
        </mxCell>
      </root>
    </mxGraphModel>
  </diagram>
</mxfile>
